<svg width="1400" height="790" viewBox="0 0 1400 790" fill="none" xmlns="http://www.w3.org/2000/svg">
<rect width="252.054" height="1.06628" transform="matrix(0.450999 -0.892524 0.93667 0.350214 946.782 224.964)" fill="#B8B6B6" fill-opacity="0.29"/>
<rect width="230.994" height="0.956318" transform="matrix(-0.89978 0.405846 -0.528832 -0.867528 1243.75 115.002)" fill="#B8B6B6" fill-opacity="0.29"/>
<rect width="194.384" height="0.999181" transform="matrix(-0.922526 -0.440617 0.529087 -0.819663 1243.32 114.912)" fill="#B8B6B6" fill-opacity="0.29"/>
<rect width="230.994" height="0.956318" transform="matrix(0.89978 0.405846 0.528832 -0.867528 541.136 121.56)" fill="#B8B6B6" fill-opacity="0.29"/>
<rect width="194.384" height="0.999181" transform="matrix(0.922526 -0.440617 -0.529087 -0.819663 541.684 121.471)" fill="#B8B6B6" fill-opacity="0.29"/>
<rect width="252.054" height="1.06628" transform="matrix(0.450999 -0.892524 0.93667 0.350214 417.782 467.964)" fill="#B8B6B6" fill-opacity="0.29"/>
<rect width="230.994" height="0.956318" transform="matrix(-0.89978 0.405846 -0.528832 -0.867528 714.746 358.002)" fill="#B8B6B6" fill-opacity="0.29"/>
<rect width="194.384" height="0.999181" transform="matrix(-0.922526 -0.440617 0.529087 -0.819663 714.319 357.912)" fill="#B8B6B6" fill-opacity="0.29"/>
<rect width="230.994" height="0.956318" transform="matrix(0.89978 0.405846 0.528832 -0.867528 12.136 364.56)" fill="#B8B6B6" fill-opacity="0.29"/>
<rect width="194.384" height="0.999181" transform="matrix(0.922526 -0.440617 -0.529087 -0.819663 12.6843 364.471)" fill="#B8B6B6" fill-opacity="0.29"/>
<rect width="252.054" height="1.06628" transform="matrix(0.450999 -0.892524 0.93667 0.350214 1090.78 545.964)" fill="#B8B6B6" fill-opacity="0.29"/>
<rect width="230.994" height="0.956318" transform="matrix(-0.89978 0.405846 -0.528832 -0.867528 1387.75 436.002)" fill="#B8B6B6" fill-opacity="0.29"/>
<rect width="194.384" height="0.999181" transform="matrix(-0.922526 -0.440617 0.529087 -0.819663 1387.32 435.912)" fill="#B8B6B6" fill-opacity="0.29"/>
<rect width="230.994" height="0.956318" transform="matrix(0.89978 0.405846 0.528832 -0.867528 685.136 442.56)" fill="#B8B6B6" fill-opacity="0.29"/>
<rect width="194.384" height="0.999181" transform="matrix(0.922526 -0.440617 -0.529087 -0.819663 685.684 442.471)" fill="#B8B6B6" fill-opacity="0.29"/>
<rect width="252.054" height="1.06628" transform="matrix(0.450999 -0.892524 0.93667 0.350214 622.782 788.964)" fill="#B8B6B6" fill-opacity="0.29"/>
<rect width="230.994" height="0.956318" transform="matrix(-0.89978 0.405846 -0.528832 -0.867528 919.746 679.002)" fill="#B8B6B6" fill-opacity="0.29"/>
<rect width="194.384" height="0.999181" transform="matrix(-0.922526 -0.440617 0.529087 -0.819663 919.319 678.912)" fill="#B8B6B6" fill-opacity="0.29"/>
<rect width="230.994" height="0.956318" transform="matrix(0.89978 0.405846 0.528832 -0.867528 217.136 685.56)" fill="#B8B6B6" fill-opacity="0.29"/>
<rect width="194.384" height="0.999181" transform="matrix(0.922526 -0.440617 -0.529087 -0.819663 217.684 685.471)" fill="#B8B6B6" fill-opacity="0.29"/>
</svg>
